<svg width="560" height="680" viewBox="0 0 560 680" fill="none" xmlns="http://www.w3.org/2000/svg">
  <defs>
    <linearGradient id="pageBg" x1="0" y1="0" x2="560" y2="680" gradientUnits="userSpaceOnUse">
      <stop offset="0" stop-color="#4A4A4A"/>
      <stop offset="1" stop-color="#2D2D2D"/>
    </linearGradient>
    <linearGradient id="pieGreen" x1="222" y1="182" x2="390" y2="350" gradientUnits="userSpaceOnUse">
      <stop offset="0" stop-color="#00A800"/>
      <stop offset="1" stop-color="#3CFF3C"/>
    </linearGradient>
    <linearGradient id="pieYellow" x1="160" y1="196" x2="232" y2="266" gradientUnits="userSpaceOnUse">
      <stop offset="0" stop-color="#FFE600"/>
      <stop offset="1" stop-color="#F9F200"/>
    </linearGradient>
    <linearGradient id="pieBlue" x1="136" y1="264" x2="250" y2="406" gradientUnits="userSpaceOnUse">
      <stop offset="0" stop-color="#0D4FA3"/>
      <stop offset="1" stop-color="#3D7AD6"/>
    </linearGradient>
    <linearGradient id="pieRed" x1="288" y1="390" x2="322" y2="420" gradientUnits="userSpaceOnUse">
      <stop offset="0" stop-color="#C40000"/>
      <stop offset="1" stop-color="#FF2B2B"/>
    </linearGradient>
  </defs>

  <rect width="560" height="680" fill="url(#pageBg)"/>
  <g id="SvgPieChartComponent">
    <rect x="32" y="32" width="496" height="616" rx="18" fill="rgba(12,12,12,0.28)" stroke="rgba(255,255,255,0.14)"/>
    <text x="64" y="82" fill="white" font-family="Arial, sans-serif" font-size="36" font-weight="700">Losses Pie Chart</text>
    <text x="64" y="116" fill="#D7D7D7" font-family="Arial, sans-serif" font-size="20">Editable Figma vector export</text>

    <rect x="64" y="150" width="432" height="456" rx="14" fill="#202020" stroke="#4A4A4A" stroke-width="2"/>
    <rect x="82" y="168" width="396" height="344" rx="14" fill="none" stroke="#4A4A4A" stroke-width="2"/>

    <path d="M194 400.438C145.933 356.751 124.317 294.461 136.949 230.239C149.582 166.018 194.554 113.549 255.235 91.9299C315.917 70.3106 383.336 82.8519 432.511 125.085C481.686 167.317 505.471 232.889 495.394 297.868L287 264Z" fill="url(#pieGreen)"/>
    <path d="M255.235 91.9299C242.438 96.4901 230.271 102.706 219.04 110.404C207.81 118.101 197.655 127.176 188.779 137.395L287 264Z" fill="url(#pieYellow)"/>
    <path d="M188.779 137.395C166.318 163.258 150.61 195.09 143.106 229.386C135.602 263.682 136.541 299.385 145.838 333.496L287 264Z" fill="url(#pieBlue)"/>
    <path d="M145.838 333.496C151.287 345.386 158.064 356.592 166.049 366.893L287 264Z" fill="url(#pieRed)"/>

    <circle cx="287" cy="264" r="62" fill="#202020" stroke="rgba(255,255,255,0.08)" stroke-width="2"/>
    <text x="287" y="280" text-anchor="middle" fill="#3CFF3C" font-family="Arial, sans-serif" font-size="48" font-weight="800">78</text>
    <text x="321" y="280" fill="#3CFF3C" font-family="Arial, sans-serif" font-size="26" font-weight="700">%</text>

    <text x="380" y="108" text-anchor="middle" fill="white" font-family="Arial, sans-serif" font-size="20" font-weight="700">OEE</text>
    <text x="160" y="142" text-anchor="middle" fill="white" font-family="Arial, sans-serif" font-size="20" font-weight="700">A Loss</text>
    <text x="132" y="394" text-anchor="middle" fill="white" font-family="Arial, sans-serif" font-size="20" font-weight="700">P Loss</text>
    <text x="206" y="438" text-anchor="middle" fill="white" font-family="Arial, sans-serif" font-size="20" font-weight="700">Q Loss</text>

    <rect x="102" y="528" width="370" height="56" rx="10" fill="#2B2B2B" stroke="#00CC33" stroke-width="2"/>
    <text x="150" y="567" text-anchor="middle" fill="#3CFF3C" font-family="Arial, sans-serif" font-size="34" font-weight="700">22<tspan font-size="24">%</tspan></text>
    <text x="242" y="567" text-anchor="middle" fill="#3D7AD6" font-family="Arial, sans-serif" font-size="34" font-weight="700">15<tspan font-size="24">%</tspan></text>
    <text x="332" y="567" text-anchor="middle" fill="#F9F200" font-family="Arial, sans-serif" font-size="34" font-weight="700">6<tspan font-size="24">%</tspan></text>
    <text x="422" y="567" text-anchor="middle" fill="#FF2B2B" font-family="Arial, sans-serif" font-size="34" font-weight="700">1<tspan font-size="24">%</tspan></text>
  </g>
</svg>
