<svg width="560" height="680" viewBox="0 0 560 680" fill="none" xmlns="http://www.w3.org/2000/svg">
  <defs>
    <linearGradient id="pageBg" x1="0" y1="0" x2="560" y2="680" gradientUnits="userSpaceOnUse">
      <stop offset="0" stop-color="#4A4A4A"/>
      <stop offset="1" stop-color="#2D2D2D"/>
    </linearGradient>
    <linearGradient id="yellowBar" x1="0" y1="0" x2="56" y2="0" gradientUnits="userSpaceOnUse">
      <stop offset="0" stop-color="#FFE600"/>
      <stop offset="1" stop-color="#F9F200"/>
    </linearGradient>
    <linearGradient id="blueBar" x1="0" y1="0" x2="56" y2="0" gradientUnits="userSpaceOnUse">
      <stop offset="0" stop-color="#0D4FA3"/>
      <stop offset="1" stop-color="#3D7AD6"/>
    </linearGradient>
    <linearGradient id="redBar" x1="0" y1="0" x2="56" y2="0" gradientUnits="userSpaceOnUse">
      <stop offset="0" stop-color="#C40000"/>
      <stop offset="1" stop-color="#FF2B2B"/>
    </linearGradient>
    <linearGradient id="greenBar" x1="0" y1="0" x2="56" y2="0" gradientUnits="userSpaceOnUse">
      <stop offset="0" stop-color="#00A800"/>
      <stop offset="1" stop-color="#3CFF3C"/>
    </linearGradient>
  </defs>

  <rect width="560" height="680" fill="url(#pageBg)"/>
  <g id="BarChartComponent">
    <rect x="32" y="32" width="496" height="616" rx="18" fill="rgba(12,12,12,0.28)" stroke="rgba(255,255,255,0.14)"/>
    <text x="64" y="82" fill="white" font-family="Arial, sans-serif" font-size="36" font-weight="700">Bar Chart</text>
    <text x="64" y="116" fill="#D7D7D7" font-family="Arial, sans-serif" font-size="20">Editable Figma vector export</text>

    <rect x="64" y="150" width="432" height="456" rx="14" fill="#202020" stroke="#4A4A4A" stroke-width="2"/>
    <rect x="82" y="168" width="396" height="344" rx="14" fill="none" stroke="#4A4A4A" stroke-width="2"/>

    <line x1="128" y1="418" x2="464" y2="418" stroke="#666666"/>
    <line x1="128" y1="353.5" x2="464" y2="353.5" stroke="#666666"/>
    <line x1="128" y1="289" x2="464" y2="289" stroke="#666666"/>
    <line x1="128" y1="224.5" x2="464" y2="224.5" stroke="#666666"/>
    <line x1="128" y1="160" x2="464" y2="160" stroke="#666666"/>

    <text x="120" y="422" text-anchor="end" fill="#D5D5D5" font-family="Arial, sans-serif" font-size="12" font-weight="700">0%</text>
    <text x="120" y="358" text-anchor="end" fill="#D5D5D5" font-family="Arial, sans-serif" font-size="12" font-weight="700">25%</text>
    <text x="120" y="293" text-anchor="end" fill="#D5D5D5" font-family="Arial, sans-serif" font-size="12" font-weight="700">50%</text>
    <text x="120" y="228" text-anchor="end" fill="#D5D5D5" font-family="Arial, sans-serif" font-size="12" font-weight="700">75%</text>
    <text x="120" y="164" text-anchor="end" fill="#D5D5D5" font-family="Arial, sans-serif" font-size="12" font-weight="700">100%</text>

    <rect x="148" y="176.76" width="56" height="241.24" rx="5" fill="url(#yellowBar)"/>
    <rect x="246" y="202.56" width="56" height="215.44" rx="5" fill="url(#blueBar)"/>
    <rect x="344" y="163.42" width="56" height="254.58" rx="5" fill="url(#redBar)"/>
    <rect x="442" y="217.24" width="56" height="200.76" rx="5" fill="url(#greenBar)"/>

    <rect x="136" y="410" width="80" height="24" rx="4" fill="#2B2B2B"/>
    <rect x="234" y="410" width="80" height="24" rx="4" fill="#2B2B2B"/>
    <rect x="332" y="410" width="80" height="24" rx="4" fill="#2B2B2B"/>
    <rect x="430" y="410" width="80" height="24" rx="4" fill="#2B2B2B"/>

    <text x="176" y="427" text-anchor="middle" fill="white" font-family="Arial, sans-serif" font-size="14">Availability</text>
    <text x="274" y="427" text-anchor="middle" fill="white" font-family="Arial, sans-serif" font-size="14">Performance</text>
    <text x="372" y="427" text-anchor="middle" fill="white" font-family="Arial, sans-serif" font-size="14">Quality</text>
    <text x="470" y="427" text-anchor="middle" fill="white" font-family="Arial, sans-serif" font-size="14">OEE</text>

    <rect x="126" y="498" width="344" height="52" rx="10" fill="#2B2B2B" stroke="#00CC33" stroke-width="2"/>
    <text x="176" y="534" text-anchor="middle" fill="#F9F200" font-family="Arial, sans-serif" font-size="34" font-weight="700">94<tspan font-size="24">%</tspan></text>
    <text x="274" y="534" text-anchor="middle" fill="#3D7AD6" font-family="Arial, sans-serif" font-size="34" font-weight="700">84<tspan font-size="24">%</tspan></text>
    <text x="372" y="534" text-anchor="middle" fill="#FF2B2B" font-family="Arial, sans-serif" font-size="34" font-weight="700">99<tspan font-size="24">%</tspan></text>
    <text x="470" y="534" text-anchor="middle" fill="#3CFF3C" font-family="Arial, sans-serif" font-size="34" font-weight="700">78<tspan font-size="24">%</tspan></text>
  </g>
</svg>
