<svg width="560" height="560" viewBox="0 0 560 560" fill="none" xmlns="http://www.w3.org/2000/svg">
  <defs>
    <linearGradient id="pageBg" x1="0" y1="0" x2="560" y2="560" gradientUnits="userSpaceOnUse">
      <stop offset="0" stop-color="#4A4A4A"/>
      <stop offset="1" stop-color="#2D2D2D"/>
    </linearGradient>
    <linearGradient id="yellowBar" x1="0" y1="0" x2="34" y2="0" gradientUnits="userSpaceOnUse">
      <stop offset="0" stop-color="#FFE600"/>
      <stop offset="1" stop-color="#F9F200"/>
    </linearGradient>
    <linearGradient id="blueBar" x1="0" y1="0" x2="34" y2="0" gradientUnits="userSpaceOnUse">
      <stop offset="0" stop-color="#0D4FA3"/>
      <stop offset="1" stop-color="#3D7AD6"/>
    </linearGradient>
    <linearGradient id="redBar" x1="0" y1="0" x2="34" y2="0" gradientUnits="userSpaceOnUse">
      <stop offset="0" stop-color="#C40000"/>
      <stop offset="1" stop-color="#FF2B2B"/>
    </linearGradient>
    <linearGradient id="greenBar" x1="0" y1="0" x2="34" y2="0" gradientUnits="userSpaceOnUse">
      <stop offset="0" stop-color="#00A800"/>
      <stop offset="1" stop-color="#3CFF3C"/>
    </linearGradient>
  </defs>

  <rect width="560" height="560" fill="url(#pageBg)"/>
  <g id="MachineComponent">
    <rect x="32" y="32" width="496" height="496" rx="18" fill="rgba(12,12,12,0.28)" stroke="rgba(255,255,255,0.14)"/>
    <text x="64" y="82" fill="white" font-family="Arial, sans-serif" font-size="36" font-weight="700">Machine Card</text>
    <text x="64" y="116" fill="#D7D7D7" font-family="Arial, sans-serif" font-size="20">Editable Figma vector export</text>

    <rect x="64" y="150" width="432" height="316" rx="14" fill="#202020" stroke="#4A4A4A" stroke-width="2"/>
    <text x="280" y="208" text-anchor="middle" fill="white" font-family="Arial, sans-serif" font-size="36" font-weight="800">Turning Cell 1</text>

    <rect x="92" y="250" width="286" height="188" rx="18" fill="#000000" stroke="#00CC33" stroke-width="6"/>
    <line x1="114" y1="368" x2="356" y2="368" stroke="#666666" stroke-width="2"/>
    <line x1="114" y1="338" x2="356" y2="338" stroke="#666666" stroke-width="2"/>
    <line x1="114" y1="308" x2="356" y2="308" stroke="#666666" stroke-width="2"/>
    <line x1="114" y1="278" x2="356" y2="278" stroke="#666666" stroke-width="2"/>

    <rect x="136" y="278.36" width="34" height="89.64" fill="url(#yellowBar)"/>
    <rect x="196" y="292.64" width="34" height="75.36" fill="url(#blueBar)"/>
    <rect x="256" y="273.72" width="34" height="94.28" fill="url(#redBar)"/>
    <rect x="316" y="293.8" width="34" height="74.2" fill="url(#greenBar)"/>

    <rect x="392" y="258" width="96" height="44" rx="12" fill="#111111" stroke="#00CC33" stroke-width="6"/>
    <rect x="392" y="320" width="96" height="44" rx="12" fill="#111111" stroke="#00CC33" stroke-width="6"/>
    <rect x="392" y="382" width="96" height="44" rx="12" fill="#111111" stroke="#FF2B2B" stroke-width="6"/>

    <text x="440" y="287" text-anchor="middle" dominant-baseline="central" fill="#3CFF3C" font-family="Arial, sans-serif" font-size="28" font-weight="900">78%</text>
    <text x="440" y="349" text-anchor="middle" dominant-baseline="central" fill="#3CFF3C" font-family="Arial, sans-serif" font-size="28" font-weight="900">346</text>
    <text x="440" y="411" text-anchor="middle" dominant-baseline="central" fill="#FF2B2B" font-family="Arial, sans-serif" font-size="28" font-weight="900">4</text>

    <text x="280" y="506" text-anchor="middle" fill="white" font-family="Arial, sans-serif" font-size="36" font-weight="800">V30-A03</text>
  </g>
</svg>
